{
    "asset" : {
        "generator" : "Khronos glTF Blender I/O v1.0.5",
        "version" : "2.0"
    },
    "scene" : 0,
    "scenes" : [
        {
            "name" : "Scene",
            "nodes" : [
                0,
                1,
                2,
                3
            ]
        }
    ],
    "nodes" : [
        {
            "name" : "Light",
            "rotation" : [
                0.2561747431755066,
                0.818199872970581,
                0.03309245780110359,
                0.5136422514915466
            ],
            "scale" : [
                -29.79126739501953,
                -29.7912654876709,
                -29.791271209716797
            ],
            "translation" : [
                -0.587148904800415,
                8.697112083435059,
                0.41410982608795166
            ]
        },
        {
            "name" : "Camera",
            "rotation" : [
                0.483536034822464,
                0.33687159419059753,
                -0.20870360732078552,
                0.7804827094078064
            ],
            "translation" : [
                7.358891487121582,
                4.958309173583984,
                6.925790786743164
            ]
        },
        {
            "mesh" : 0,
            "name" : "Cylinder",
            "rotation" : [
                0,
                -0.8137654662132263,
                0,
                0.5811933875083923
            ],
            "scale" : [
                1,
                1.1848682165145874,
                1
            ]
        },
        {
            "mesh" : 1,
            "name" : "NurbsCircle",
            "rotation" : [
                0.7051469683647156,
                -0.05260975658893585,
                -0.05260975658893585,
                0.7051469087600708
            ],
            "scale" : [
                0.6195935010910034,
                1,
                0.8585345149040222
            ],
            "translation" : [
                1.1113685369491577,
                -0.01099689956754446,
                0
            ]
        }
    ],
    "materials" : [
        {
            "doubleSided" : true,
            "name" : "Material.002",
            "pbrMetallicRoughness" : {
                "baseColorFactor" : [
                    0.800000011920929,
                    0.800000011920929,
                    0.800000011920929,
                    1
                ],
                "metallicFactor" : 0,
                "roughnessFactor" : 0.5
            }
        },
        {
            "doubleSided" : true,
            "name" : "Material.003",
            "pbrMetallicRoughness" : {
                "baseColorTexture" : {
                    "index" : 0,
                    "texCoord" : 0
                },
                "metallicFactor" : 0,
                "roughnessFactor" : 0.5
            }
        },
        {
            "doubleSided" : true,
            "name" : "Material.001",
            "pbrMetallicRoughness" : {
                "baseColorFactor" : [
                    0.800000011920929,
                    0.800000011920929,
                    0.800000011920929,
                    1
                ],
                "metallicFactor" : 0,
                "roughnessFactor" : 0.5
            }
        }
    ],
    "meshes" : [
        {
            "name" : "Cylinder",
            "primitives" : [
                {
                    "attributes" : {
                        "POSITION" : 0,
                        "NORMAL" : 1,
                        "TEXCOORD_0" : 2
                    },
                    "indices" : 3,
                    "material" : 0
                },
                {
                    "attributes" : {
                        "POSITION" : 4,
                        "NORMAL" : 5,
                        "TEXCOORD_0" : 6
                    },
                    "indices" : 7,
                    "material" : 1
                }
            ]
        },
        {
            "name" : "NurbsCircle",
            "primitives" : [
                {
                    "attributes" : {
                        "POSITION" : 8,
                        "NORMAL" : 9,
                        "TEXCOORD_0" : 10
                    },
                    "indices" : 11,
                    "material" : 2
                }
            ]
        }
    ],
    "textures" : [
        {
            "sampler" : 0,
            "source" : 0
        }
    ],
    "images" : [
        {
            "bufferView" : 8,
            "mimeType" : "image/png",
            "name" : "img4"
        }
    ],
    "accessors" : [
        {
            "bufferView" : 0,
            "componentType" : 5126,
            "count" : 6730,
            "max" : [
                0.9997807145118713,
                1,
                0.9996008276939392
            ],
            "min" : [
                -0.9997807145118713,
                -1,
                -0.9996008276939392
            ],
            "type" : "VEC3"
        },
        {
            "bufferView" : 1,
            "componentType" : 5126,
            "count" : 6730,
            "type" : "VEC3"
        },
        {
            "bufferView" : 2,
            "componentType" : 5126,
            "count" : 6730,
            "type" : "VEC2"
        },
        {
            "bufferView" : 3,
            "componentType" : 5123,
            "count" : 10788,
            "type" : "SCALAR"
        },
        {
            "bufferView" : 4,
            "componentType" : 5126,
            "count" : 1200,
            "max" : [
                0.9997807145118713,
                0.9809382557868958,
                0.9996008276939392
            ],
            "min" : [
                -0.9997807145118713,
                -0.9809382557868958,
                -0.9996008276939392
            ],
            "type" : "VEC3"
        },
        {
            "bufferView" : 5,
            "componentType" : 5126,
            "count" : 1200,
            "type" : "VEC3"
        },
        {
            "bufferView" : 6,
            "componentType" : 5126,
            "count" : 1200,
            "type" : "VEC2"
        },
        {
            "bufferView" : 7,
            "componentType" : 5123,
            "count" : 1800,
            "type" : "SCALAR"
        },
        {
            "bufferView" : 9,
            "componentType" : 5126,
            "count" : 3001,
            "max" : [
                1.1150915622711182,
                0.2000000923871994,
                1.1147217750549316
            ],
            "min" : [
                -0.4170999526977539,
                -0.2000000923871994,
                -1.1150915622711182
            ],
            "type" : "VEC3"
        },
        {
            "bufferView" : 10,
            "componentType" : 5126,
            "count" : 3001,
            "type" : "VEC3"
        },
        {
            "bufferView" : 11,
            "componentType" : 5126,
            "count" : 3001,
            "type" : "VEC2"
        },
        {
            "bufferView" : 12,
            "componentType" : 5123,
            "count" : 16878,
            "type" : "SCALAR"
        }
    ],
    "bufferViews" : [
        {
            "buffer" : 0,
            "byteLength" : 80760,
            "byteOffset" : 0
        },
        {
            "buffer" : 0,
            "byteLength" : 80760,
            "byteOffset" : 80760
        },
        {
            "buffer" : 0,
            "byteLength" : 53840,
            "byteOffset" : 161520
        },
        {
            "buffer" : 0,
            "byteLength" : 21576,
            "byteOffset" : 215360
        },
        {
            "buffer" : 0,
            "byteLength" : 14400,
            "byteOffset" : 236936
        },
        {
            "buffer" : 0,
            "byteLength" : 14400,
            "byteOffset" : 251336
        },
        {
            "buffer" : 0,
            "byteLength" : 9600,
            "byteOffset" : 265736
        },
        {
            "buffer" : 0,
            "byteLength" : 3600,
            "byteOffset" : 275336
        },
        {
            "buffer" : 0,
            "byteLength" : 331220,
            "byteOffset" : 278936
        },
        {
            "buffer" : 0,
            "byteLength" : 36012,
            "byteOffset" : 610156
        },
        {
            "buffer" : 0,
            "byteLength" : 36012,
            "byteOffset" : 646168
        },
        {
            "buffer" : 0,
            "byteLength" : 24008,
            "byteOffset" : 682180
        },
        {
            "buffer" : 0,
            "byteLength" : 33756,
            "byteOffset" : 706188
        }
    ],
    "samplers" : [
        {
            "magFilter" : 9729,
            "minFilter" : 9986,
            "wrapS" : 33071,
            "wrapT" : 33071
        }
    ],
    "buffers" : [
        {
            "byteLength" : 739944,
            "uri" : "data:application/octet-stream;base64,"
        }
    ]
}
